<?xml version="1.0" encoding="UTF-8" standalone="no"?>
<svg
   xmlns:dc="http://purl.org/dc/elements/1.1/"
   xmlns:cc="http://creativecommons.org/ns#"
   xmlns:rdf="http://www.w3.org/1999/02/22-rdf-syntax-ns#"
   xmlns:svg="http://www.w3.org/2000/svg"
   xmlns="http://www.w3.org/2000/svg"
   xmlns:sodipodi="http://sodipodi.sourceforge.net/DTD/sodipodi-0.dtd"
   xmlns:inkscape="http://www.inkscape.org/namespaces/inkscape"
   width="210mm"
   height="297mm"
   viewBox="0 0 210 297"
   version="1.1"
   id="svg8"
   inkscape:version="1.0.2 (e86c870879, 2021-01-15, custom)"
   sodipodi:docname="Zeichnung.svg">
  <defs
     id="defs2" />
  <sodipodi:namedview
     id="base"
     pagecolor="#ffffff"
     bordercolor="#666666"
     borderopacity="1.0"
     inkscape:pageopacity="0.0"
     inkscape:pageshadow="2"
     inkscape:zoom="1"
     inkscape:cx="357.52492"
     inkscape:cy="418.28857"
     inkscape:document-units="mm"
     inkscape:current-layer="layer1"
     inkscape:document-rotation="0"
     showgrid="false"
     inkscape:window-width="1920"
     inkscape:window-height="1137"
     inkscape:window-x="-8"
     inkscape:window-y="-8"
     inkscape:window-maximized="1" />
  <metadata
     id="metadata5">
    <rdf:RDF>
      <cc:Work
         rdf:about="">
        <dc:format>image/svg+xml</dc:format>
        <dc:type
           rdf:resource="http://purl.org/dc/dcmitype/StillImage" />
        <dc:title />
      </cc:Work>
    </rdf:RDF>
  </metadata>
  <g
     inkscape:label="Grün"
     inkscape:groupmode="layer"
     id="layer1">
    <path
       style="fill:none;stroke:#000000;stroke-width:0.264583px;stroke-linecap:butt;stroke-linejoin:miter;stroke-opacity:1"
       d="M 145.66189,109.31324 32.072344,85.258978 88.198943,117.33132 52.652096,159.29264 Z"
       id="path851"
       sodipodi:nodetypes="ccccc" />
    <path
       style="fill:none;stroke:#000000;stroke-width:0.264583px;stroke-linecap:butt;stroke-linejoin:miter;stroke-opacity:1"
       d="M 130.96207,111.45139 70.559155,145.66189 96.751566,116.26224 56.1266,94.613411 Z"
       id="path853"
       sodipodi:nodetypes="ccccc" />
    <path
       style="fill:#008000;stroke-width:1.01015"
       d="m 206.39773,594.04209 c 0.87004,-1.00384 29.94556,-35.33575 64.80285,-76.49077 34.85731,-41.15502 62.76123,-74.17168 62.76123,-74.17168 0,0 -46.01027,-26.44655 -102.39314,-58.61358 -56.38288,-32.16703 -107.32645,-61.15084 -107.17594,-61.30135 0.1505,-0.1505 99.47428,20.85552 214.03549,45.11621 114.5612,24.2607 211.05543,44.58652 210.62433,44.80671 -1.16212,0.59357 -344.61413,185.51314 -346.84268,186.3463 -1.43765,0.53748 2.35407,-3.57602 3.36707,-4.74482 z M 382.56475,485.43826 c 62.36429,-35.31206 113.62176,-64.36463 113.62176,-64.36463 0,0 -63.83846,-14.47046 -141.48131,-31.9163 -77.64285,-17.44583 -140.98275,-31.62327 -141.75304,-31.89665 -0.87291,-0.3098 -1.44353,-0.37107 -1.1491,0.51624 0.3564,1.07407 109.18716,58.4777 147.10028,78.62411 l 5.97036,3.17255 -49.06378,55.02732 c -26.94734,30.22271 -49.50069,55.55669 -49.74623,55.98459 -0.25741,0.4486 0.17874,0.75369 1.08525,0.24726 0.97227,-0.54317 53.05152,-30.08242 115.41581,-65.39449 z"
       id="path855"
       transform="scale(0.26458333)"
       sodipodi:nodetypes="sscsssssssscsssscssss" />
  </g>
  <g
     inkscape:groupmode="layer"
     id="layer2"
     inkscape:label="Dreieck Oben">
    <path
       style="fill:none;stroke:#000000;stroke-width:0.264583px;stroke-linecap:butt;stroke-linejoin:miter;stroke-opacity:1"
       d="M 96.484297,93.544333 106.64054,63.610148 121.60763,98.889724 Z"
       id="path858"
       sodipodi:nodetypes="cccc" />
    <path
       style="fill:#b3b3b3;fill-opacity:1;stroke:#b3b3b3;stroke-width:1.01015;stroke-opacity:1"
       d="m 411.19779,362.51864 c -26.00294,-5.59379 -45.39896,-9.23997 -45.18104,-9.82092 0.20839,-0.55559 8.85528,-25.87901 18.7909,-55.1554 9.93561,-29.27638 18.18117,-55.05681 18.54171,-54.67079 0.36054,0.38602 11.62553,28.30056 24.81505,59.41326 1.96664,4.63909 3.80344,8.97181 5.51875,13.01834 24.63744,58.12132 24.72375,57.09009 23.94104,56.95289 -0.38518,-0.0675 -21.55943,-4.38795 -46.42641,-9.73738 z"
       id="path860"
       transform="scale(0.26458333)"
       sodipodi:nodetypes="ssssssss" />
    <path
       style="fill:#b3b3b3;stroke-width:1.01015"
       d=""
       id="path862"
       transform="scale(0.26458333)" />
  </g>
  <g
     inkscape:groupmode="layer"
     id="layer3"
     inkscape:label="Dreieck Unten">
    <path
       style="fill:none;stroke:#000000;stroke-width:0.264583px;stroke-linecap:butt;stroke-linejoin:miter;stroke-opacity:1"
       d="m 130.16026,124.5476 -23.25245,12.2944 35.81411,18.17433 z"
       id="path865"
       sodipodi:nodetypes="cccc" />
    <path
       style="fill:#b3b3b3;fill-opacity:1;stroke:#b3b3b3;stroke-width:1.01015;stroke-opacity:1"
       d="m 471.31024,550.12304 c -35.14068,-17.83149 -64.93971,-32.61082 -64.91792,-32.9587 0.0708,-1.13035 84.31918,-45.61097 85.04605,-44.8961 0.38776,0.38136 10.56544,25.60734 22.58979,54.77549 12.02435,29.16816 22.14179,53.46729 22.42867,54.16177 0.28687,0.69448 1.42666,2.63353 0.95054,2.61752 -0.47614,-0.016 -30.95645,-15.86849 -66.09713,-33.69998 z"
       id="path867"
       transform="scale(0.26458333)"
       sodipodi:nodetypes="sssssss" />
  </g>
</svg>
